<svg version="1.1" id="Layer_1" xmlns="http://www.w3.org/2000/svg" xmlns:xlink="http://www.w3.org/1999/xlink" x="0px" y="0px"
	 viewBox="0 0 333 161.9" style="enable-background:new 0 0 333 161.9;" xml:space="preserve">
<style type="text/css">
	.st0{fill:#FFFFFF;}
</style>
<path class="st0" d="M83.5,34.4c-0.4,4.2-4.1,7.3-8.3,6.9c-4.2-0.4-7.3-4.1-6.9-8.3c0.4-4.2,4.1-7.3,8.3-6.9
	C80.7,26.5,83.8,30.2,83.5,34.4C83.5,34.4,83.5,34.4,83.5,34.4 M85,24.3L85,24.3C73.5,12.6,50.2,10,4.8,29.6C4.6,29.6,4,29.9,4,30
	c-1.2,0.8-2,2.1-2,3.6c-0.1,2.3,1.7,4.2,4,4.2c0.1,0,0.1,0,0.2,0c0.7-0.1,1.4-0.3,2-0.6c6.7-2.4,39.5-11.4,56.7,4.2
	c0.6,0.5,1.1,0.9,1.6,1.4s1,1,1.4,1.6c15.6,17.3,6.6,50.1,4.1,56.7c-0.3,0.6-0.5,1.3-0.6,2c-0.1,2.3,1.7,4.2,4,4.2
	c0.1,0,0.1,0,0.2,0c1.5,0,2.8-0.8,3.6-2c0.2-0.3,0.3-0.6,0.4-0.9C99.3,59.3,96.7,35.9,85,24.3"/>
<path class="st0" d="M107.6,12.4c-0.5,5.4-5.3,9.5-10.7,9c-5.4-0.5-9.5-5.3-9-10.7c0.5-5.4,5.3-9.5,10.7-9
	C104,2.1,108,6.9,107.6,12.4"/>
<path class="st0" d="M62.5,52.8c-0.3,2.9-2.8,5-5.6,4.7c-2.9-0.3-5-2.8-4.7-5.6c0.3-2.9,2.8-5,5.6-4.7
	C60.6,47.4,62.7,49.9,62.5,52.8C62.5,52.8,62.5,52.8,62.5,52.8"/>
<path class="st0" d="M47.9,65.9c-0.2,2.1-2.1,3.7-4.2,3.5c-2.1-0.2-3.7-2.1-3.5-4.2c0.2-2.1,2.1-3.7,4.2-3.5c0,0,0,0,0,0
	C46.5,61.9,48,63.8,47.9,65.9"/>
<path class="st0" d="M242.8,24.9h-9.3c-1.4,0.1-2.4,1.3-2.3,2.7v31.2h-32.2V27.5c0.1-1.4-1-2.6-2.3-2.7h-9.4
	c-1.4,0.1-2.4,1.3-2.3,2.7v79c0,1.4,1,2.5,2.3,2.7h9.4c1.4-0.1,2.4-1.3,2.3-2.7V74h32.2v32.5c-0.1,1.4,1,2.6,2.3,2.7h9.3
	c1.4-0.1,2.4-1.3,2.3-2.7v-79C245.1,26.1,244.1,25,242.8,24.9z"/>
<path class="st0" d="M174.9,24.9h-41.2c-1.4,0.1-2.4,1.3-2.3,2.7v79c-0.1,1.4,1,2.6,2.3,2.7h9.3c1.4-0.1,2.4-1.3,2.3-2.7V74h24.6
	c1.3-0.1,2.4-1.3,2.3-2.6v-9.8c0-1.4-1-2.5-2.3-2.7h-24.6V40h29.6c1.4-0.1,2.4-1.3,2.3-2.7v-9.8C177.3,26.1,176.3,25,174.9,24.9z"/>
<path class="st0" d="M272.7,24.9h-9.4c-1.4,0.1-2.4,1.3-2.3,2.7v79c0,1.4,1,2.5,2.3,2.7h9.4c1.4-0.1,2.4-1.3,2.3-2.7v-79
	C275,26.2,274,25,272.7,24.9z"/>
<rect x="39.5" y="124.6" class="st0" width="291.2" height="0.6"/>
<path class="st0" d="M39.5,137.3c0-0.3,0.3-0.6,0.6-0.6c0,0,0,0,0,0h13c0.3,0,0.6,0.3,0.6,0.6l0,0v1.8c0,0.3-0.3,0.6-0.6,0.6l0,0
	H42.8v7.5h8.6c0.3,0,0.6,0.3,0.6,0.6v1.8c0,0.3-0.3,0.6-0.6,0.6h-8.6v8.5c0,0.3-0.3,0.6-0.6,0.6h-2.1c-0.3,0-0.6-0.3-0.6-0.6
	c0,0,0,0,0,0V137.3z"/>
<path class="st0" d="M61.3,144c4.3-0.1,7.9,3.3,8,7.6c0.1,4.3-3.3,7.9-7.6,8c-4.3,0.1-7.9-3.3-8-7.6c0-0.1,0-0.1,0-0.2
	C53.7,147.6,57.1,144.1,61.3,144z M61.3,156.6c2.5-0.1,4.5-2.1,4.4-4.6c0-0.1,0-0.1,0-0.2c0.2-2.5-1.7-4.6-4.2-4.7
	c-2.5-0.2-4.6,1.7-4.7,4.2c0,0.2,0,0.4,0,0.6c-0.1,2.5,1.8,4.6,4.3,4.8C61.2,156.6,61.3,156.6,61.3,156.6z"/>
<path class="st0" d="M72.1,137.3c0-0.4,0.3-0.7,0.7-0.7h1.8c0.4,0,0.7,0.3,0.7,0.7v21.2c0,0.4-0.3,0.7-0.7,0.7h-1.8
	c-0.4,0-0.7-0.3-0.7-0.7l0,0L72.1,137.3z"/>
<path class="st0" d="M81,137.3c0-0.4,0.3-0.7,0.7-0.7h1.8c0.4,0,0.7,0.3,0.7,0.7V150l5.8-5.2c0.2-0.3,0.6-0.4,0.9-0.5h2.4
	c0.3,0,0.6,0.3,0.6,0.6c0,0.1-0.1,0.3-0.2,0.4l-6,5.7l6.3,7.2c0.3,0.4,0.2,1-0.4,1h-2.7c-0.3,0-0.5-0.1-0.7-0.3l-6-7v6.5
	c0,0.4-0.3,0.7-0.7,0.7h-1.8c-0.4,0-0.7-0.3-0.7-0.7v0V137.3z"/>
<path class="st0" d="M103.5,144c3.7-0.1,6.7,2.8,6.8,6.5c0,0.1,0,0.3,0,0.4c0,0.3,0,0.8-0.1,1c0,0.4-0.3,0.6-0.7,0.6H99.2
	c0.2,2.3,2.1,4.1,4.5,4.1c1.3,0,2.6-0.4,3.7-1.3c0.3-0.2,0.6-0.3,0.9,0.1l0.9,1.4c0.3,0.3,0.4,0.6-0.1,1c-1.6,1.2-3.5,1.9-5.5,1.9
	c-4.5,0-7.5-3.6-7.5-7.8S99,144,103.5,144z M107.1,150.2c-0.1-1.9-1.7-3.5-3.7-3.4c0,0,0,0,0,0c-2-0.1-3.8,1.4-4,3.4H107.1z"/>
<path class="st0" d="M114.2,137.3c0-0.4,0.3-0.7,0.7-0.7h1.8c0.4,0,0.7,0.3,0.7,0.7v8.2c1.2-1,2.8-1.5,4.3-1.6c4.2,0,5.8,3,5.8,7.1
	v7.5c0,0.4-0.3,0.7-0.7,0.7H125c-0.4,0-0.7-0.3-0.7-0.7V151c0-2.5-1-3.9-3-3.9c-1.6,0-3.1,0.8-3.9,2.2v9.3c0,0.4-0.3,0.7-0.7,0.7
	c0,0-0.1,0-0.1,0h-1.8c-0.4,0-0.7-0.3-0.7-0.7v0L114.2,137.3z"/>
<path class="st0" d="M138.5,144c3.7-0.1,6.7,2.8,6.8,6.5c0,0.1,0,0.3,0,0.4c0,0.3,0,0.8-0.1,1c0,0.4-0.3,0.6-0.7,0.6h-10.3
	c0.2,2.3,2.1,4.1,4.5,4.1c1.3,0,2.6-0.4,3.7-1.3c0.3-0.2,0.6-0.3,0.9,0.1l0.9,1.4c0.3,0.3,0.4,0.6-0.1,1c-1.6,1.2-3.5,1.9-5.5,1.9
	c-4.5,0-7.5-3.6-7.5-7.8S134,144,138.5,144z M142.1,150.2c-0.1-1.9-1.7-3.5-3.7-3.4c0,0,0,0,0,0c-2-0.1-3.8,1.4-4,3.4H142.1z"/>
<path class="st0" d="M149.3,137.3c0-0.4,0.3-0.7,0.7-0.7h1.8c0.4,0,0.7,0.3,0.7,0.7v21.2c0,0.4-0.3,0.7-0.7,0.7h-1.8
	c-0.4,0-0.7-0.3-0.7-0.7V137.3z"/>
<path class="st0" d="M157,158.2c-0.3-0.2-0.4-0.5-0.3-0.8l0.7-1.4c0.2-0.3,0.6-0.4,0.9-0.3c0,0,0.1,0,0.1,0.1
	c1.1,0.7,2.4,1.1,3.7,1.1c1.3,0,2-0.6,2-1.4c0-1-1.1-1.6-3.2-2.6c-2.3-1-4-2.3-4-4.7c0-1.9,1.3-4.1,5-4.1c1.5,0,3,0.3,4.4,1.1
	c0.4,0.2,0.5,0.7,0.3,1.1l-0.5,1c-0.2,0.4-0.6,0.5-1,0.3c0,0,0,0,0,0c-1-0.5-2.1-0.7-3.2-0.8c-1.3,0-1.9,0.6-1.9,1.3
	c0,1,1.1,1.6,2.6,2.2c2.8,1.2,4.8,2.2,4.8,5c0,2.3-2,4.4-5.3,4.4C160.3,159.7,158.5,159.2,157,158.2z"/>
<path class="st0" d="M177.4,144c3.7-0.1,6.7,2.8,6.8,6.5c0,0.1,0,0.3,0,0.4c0,0.3,0,0.8-0.1,1c0,0.4-0.3,0.6-0.7,0.6h-10.3
	c0.2,2.3,2.1,4.1,4.5,4.1c1.3,0,2.6-0.4,3.7-1.3c0.3-0.2,0.6-0.3,0.9,0.1l0.9,1.4c0.3,0.3,0.4,0.6-0.1,1c-1.6,1.2-3.5,1.9-5.5,1.9
	c-4.5,0-7.5-3.6-7.5-7.8S172.9,144,177.4,144z M181,150.2c-0.1-2-1.7-3.5-3.7-3.4c0,0,0,0,0,0c-2-0.1-3.8,1.4-4,3.4H181z"/>
<path class="st0" d="M187.7,139c0-1.2,0.9-2.2,2.1-2.2c0,0,0,0,0,0c1.2-0.1,2.3,0.8,2.3,2c0.1,1.2-0.8,2.3-2,2.3c-0.1,0-0.2,0-0.3,0
	C188.6,141.1,187.7,140.2,187.7,139C187.7,139,187.7,139,187.7,139z M188.2,145.1c0-0.4,0.3-0.7,0.7-0.7h1.8c0.4,0,0.7,0.3,0.7,0.7
	v13.5c0,0.4-0.3,0.7-0.7,0.7h-1.8c-0.4,0-0.7-0.3-0.7-0.7v0L188.2,145.1z"/>
<path class="st0" d="M196.4,145.1c0-0.4,0.3-0.7,0.7-0.7h0.8c0.3,0,0.6,0.2,0.6,0.5l0.5,1.3c1.3-1.4,3.1-2.1,5-2.1
	c4.6,0,5.8,3.2,5.8,7.1v7.5c0,0.4-0.3,0.7-0.7,0.7h-1.8c-0.4,0-0.7-0.3-0.7-0.7V151c0-2.4-1-3.9-2.9-3.9c-1.6,0-3.1,0.8-3.9,2.2v9.3
	c0,0.5-0.3,0.7-0.9,0.7h-1.6c-0.4,0-0.7-0.3-0.7-0.7v0L196.4,145.1z"/>
<path class="st0" d="M213.9,158.2c-0.3-0.2-0.4-0.5-0.3-0.8c0,0,0,0,0,0l0.7-1.4c0.2-0.3,0.6-0.4,0.9-0.3c0,0,0.1,0,0.1,0.1
	c1.1,0.7,2.4,1.1,3.7,1.1c1.3,0,2-0.6,2-1.4c0-1-1.1-1.6-3.2-2.6c-2.3-1-4-2.3-4-4.7c0-1.9,1.3-4.1,5-4.1c1.5,0,3,0.3,4.4,1.1
	c0.4,0.2,0.5,0.7,0.3,1.1l-0.5,1c-0.2,0.3-0.6,0.5-0.9,0.3c0,0,0,0-0.1,0c-1-0.5-2.1-0.7-3.2-0.8c-1.3,0-1.9,0.6-1.9,1.3
	c0,1,1.1,1.6,2.6,2.2c2.8,1.2,4.8,2.2,4.8,5c0,2.3-2,4.4-5.3,4.4C217.1,159.6,215.4,159.1,213.9,158.2z"/>
<path class="st0" d="M229.1,147.1h-1.7c-0.4,0-0.7-0.3-0.7-0.7v-1.3c0-0.4,0.3-0.7,0.7-0.7c0,0,0,0,0.1,0h1.7v-4.2
	c0-0.4,0.3-0.7,0.7-0.7h1.8c0.4,0,0.7,0.3,0.7,0.7c0,0,0,0,0,0v4.2h4c0.4,0,0.7,0.3,0.7,0.7c0,0,0,0,0,0v1.3c0,0.4-0.3,0.7-0.7,0.7
	h-4v8c0,1.3,0.5,1.5,1.2,1.5c0.8,0,1.7-0.3,2.4-0.7c0.3-0.2,0.6-0.1,0.8,0.1c0,0.1,0.1,0.1,0.1,0.2l0.6,1.5c0.2,0.4,0,0.6-0.4,0.9
	c-1.3,0.7-2.7,1.1-4.1,1.1c-3,0-3.8-1.8-3.8-4.5L229.1,147.1z"/>
<path class="st0" d="M240.3,139c0-1.2,0.9-2.2,2.1-2.2c0,0,0,0,0,0c1.2-0.1,2.3,0.8,2.3,2c0.1,1.2-0.8,2.3-2,2.3c-0.1,0-0.2,0-0.3,0
	C241.2,141.2,240.3,140.2,240.3,139C240.3,139,240.3,139,240.3,139z M240.8,145.1c0-0.4,0.3-0.7,0.7-0.7h1.8c0.4,0,0.7,0.3,0.7,0.7
	v13.5c0,0.4-0.3,0.7-0.7,0.7h-1.8c-0.4,0-0.7-0.3-0.7-0.7V145.1z"/>
<path class="st0" d="M249.8,147.1h-1.7c-0.4,0-0.7-0.3-0.7-0.7v-1.3c0-0.4,0.3-0.7,0.7-0.7c0,0,0,0,0.1,0h1.7v-4.2
	c0-0.4,0.3-0.7,0.7-0.7h1.8c0.4,0,0.7,0.3,0.7,0.7c0,0,0,0,0,0v4.2h3.9c0.4,0,0.7,0.3,0.7,0.7c0,0,0,0,0,0v1.3
	c0,0.4-0.3,0.7-0.7,0.7H253v8c0,1.3,0.5,1.5,1.2,1.5c0.8,0,1.7-0.3,2.4-0.7c0.3-0.2,0.6-0.1,0.8,0.1c0,0.1,0.1,0.1,0.1,0.2l0.6,1.5
	c0.2,0.4,0,0.6-0.4,0.9c-1.3,0.7-2.7,1.1-4.1,1.1c-3,0-3.8-1.8-3.8-4.5L249.8,147.1z"/>
<path class="st0" d="M261.1,145.1c0-0.4,0.3-0.7,0.7-0.7h1.8c0.4,0,0.7,0.3,0.7,0.7v8c0,2.5,1,3.6,2.9,3.6c1.6,0,3-1,3.5-2.5v-9.1
	c0-0.6,0.3-0.7,0.8-0.7h1.6c0.4,0,0.7,0.3,0.8,0.7v13.5c0,0.4-0.4,0.7-0.8,0.7h-0.8c-0.4,0-0.5-0.3-0.7-0.6l-0.4-1.1
	c-1.2,1.3-2.9,2.1-4.7,2c-4.5,0-5.6-3-5.6-6.9L261.1,145.1z"/>
<path class="st0" d="M279.9,147.1h-1.7c-0.4,0-0.7-0.3-0.7-0.7v-1.3c0-0.4,0.3-0.7,0.7-0.7c0,0,0,0,0.1,0h1.7v-4.2
	c0-0.4,0.3-0.7,0.7-0.7h1.8c0.4,0,0.7,0.3,0.7,0.7c0,0,0,0,0,0v4.2h4c0.4,0,0.7,0.3,0.7,0.7c0,0,0,0,0,0v1.3c0,0.4-0.3,0.7-0.7,0.7
	h-4v8c0,1.3,0.5,1.5,1.2,1.5c0.8,0,1.7-0.3,2.4-0.7c0.3-0.2,0.6-0.1,0.8,0.1c0,0.1,0.1,0.1,0.1,0.2l0.6,1.5c0.2,0.4,0,0.6-0.4,0.9
	c-1.3,0.7-2.7,1.1-4.1,1.1c-3,0-3.8-1.8-3.8-4.5L279.9,147.1z"/>
<path class="st0" d="M293,147.1h-1.7c-0.4,0-0.7-0.3-0.7-0.7v-1.3c0-0.4,0.3-0.7,0.7-0.7c0,0,0,0,0.1,0h1.7v-4.2
	c0-0.4,0.3-0.7,0.7-0.7h1.9c0.4,0,0.7,0.3,0.7,0.7c0,0,0,0,0,0v4.2h4c0.4,0,0.7,0.3,0.7,0.7c0,0,0,0,0,0v1.3c0,0.4-0.3,0.7-0.7,0.7
	h-4v8c0,1.3,0.5,1.5,1.2,1.5c0.8,0,1.7-0.3,2.4-0.7c0.3-0.2,0.6-0.1,0.8,0.1c0,0.1,0.1,0.1,0.1,0.2l0.6,1.5c0.2,0.4,0,0.6-0.4,0.9
	c-1.3,0.7-2.7,1.1-4.1,1.1c-3,0-3.8-1.8-3.8-4.5V147.1z"/>
<path class="st0" d="M310.9,144c3.7-0.1,6.7,2.8,6.8,6.5c0,0.1,0,0.3,0,0.4c0,0.3,0,0.7-0.1,1c0,0.4-0.3,0.6-0.7,0.6h-10.3
	c0.2,2.3,2.1,4.1,4.5,4.1c1.3,0,2.6-0.4,3.7-1.3c0.3-0.2,0.6-0.3,0.9,0.1l0.9,1.4c0.3,0.3,0.4,0.6-0.1,1c-1.6,1.2-3.5,1.9-5.5,1.9
	c-4.5,0-7.5-3.6-7.5-7.8S306.4,144,310.9,144z M314.5,150.2c-0.1-1.9-1.7-3.5-3.7-3.4c0,0,0,0,0,0c-2-0.1-3.8,1.4-4,3.4H314.5z"/>
<path class="st0" d="M322.5,147.1h-1.7c-0.4,0-0.7-0.3-0.7-0.7v-1.3c0-0.4,0.3-0.7,0.7-0.7c0,0,0,0,0.1,0h1.7v-4.2
	c0-0.4,0.3-0.7,0.7-0.7h1.8c0.4,0,0.7,0.3,0.7,0.7c0,0,0,0,0,0v4.2h3.9c0.4,0,0.7,0.3,0.7,0.7c0,0,0,0,0,0v1.3
	c0,0.4-0.3,0.7-0.7,0.7h-4v8c0,1.3,0.5,1.5,1.2,1.5c0.8,0,1.7-0.3,2.4-0.7c0.3-0.2,0.6-0.1,0.8,0.1c0,0.1,0.1,0.1,0.1,0.2l0.6,1.5
	c0.2,0.4,0,0.6-0.4,0.9c-1.3,0.7-2.7,1.1-4.1,1.1c-3,0-3.8-1.8-3.8-4.5L322.5,147.1z"/>
</svg>
